ply
format ascii 1.0
element vertex 61
property float x
property float y
property float z
property uchar red
property uchar green
property uchar blue
end_header
0 0 0 245 180 0
1 3 0 245 180 0
2 9 0 245 180 0
3 16 0 245 180 0
4 21 0 245 180 0
5 24 0 245 180 0
6 29 0 245 180 0
7 35 0 245 180 0
8 37 0 245 180 0
9 46 0 245 180 0
10 47 0 245 180 0
11 49 0 245 180 0
12 56 0 245 180 0
13 56 0 245 180 0
14 65 0 245 180 0
15 68 0 245 180 0
16 74 0 245 180 0
17 74 0 245 180 0
18 80 0 245 180 0
19 82 0 245 180 0
0.17 0 0 245 180 0
1.17 3 0 245 180 0
2.17 9 0 245 180 0
3.17 16 0 245 180 0
4.17 21 0 245 180 0
5.17 24 0 245 180 0
6.17 29 0 245 180 0
7.17 35 0 245 180 0
8.17 37 0 245 180 0
9.17 46 0 245 180 0
10.17 47 0 245 180 0
11.17 49 0 245 180 0
12.17 56 0 245 180 0
13.17 56 0 245 180 0
14.17 65 0 245 180 0
15.17 68 0 245 180 0
16.17 74 0 245 180 0
17.17 74 0 245 180 0
18.17 80 0 245 180 0
19.17 82 0 245 180 0
19 19.17 0 245 180 0
0.17 0.34 0 245 180 0
1.17 1.34 0 245 180 0
2.17 2.34 0 245 180 0
3.17 3.34 0 245 180 0
4.17 4.34 0 245 180 0
5.17 5.34 0 245 180 0
6.17 6.34 0 245 180 0
7.17 7.34 0 245 180 0
8.17 8.34 0 245 180 0
9.17 9.34 0 245 180 0
10.17 10.34 0 245 180 0
11.17 11.34 0 245 180 0
12.17 12.34 0 245 180 0
13.17 13.34 0 245 180 0
14.17 14.34 0 245 180 0
15.17 15.34 0 245 180 0
16.17 16.34 0 245 180 0
17.17 17.34 0 245 180 0
18.17 18.34 0 245 180 0
19.17 19.34 0 245 180 0
